<?xml version="1.0" standalone="no"?><!DOCTYPE svg PUBLIC "-//W3C//DTD SVG 1.1//EN" "http://www.w3.org/Graphics/SVG/1.1/DTD/svg11.dtd"><svg t="1528026027692" class="icon" style="" viewBox="0 0 1024 1024" version="1.1" xmlns="http://www.w3.org/2000/svg" p-id="9071" xmlns:xlink="http://www.w3.org/1999/xlink" width="200" height="200"><defs><style type="text/css"></style></defs><path d="M288.229 236.197h453.548c0.376 8.91-0.060 135.164-0.060 144.29 0 183.407-103.19 332.045-224.911 332.045-121.722 0-229.476-148.638-229.476-332.045 0.001-9.125 0.371-135.38 0.901-144.29v0 0z" p-id="9072"></path><path d="M588.7 822.519c20.21 0 36.695 16.393 36.695 36.635 0 20.271-16.484 36.659-36.695 36.659h-147.456c-20.302 0-36.631-16.389-36.631-36.659 0-20.242 16.325-36.635 36.631-36.635h147.456z" p-id="9073"></path><path d="M474.181 772.817c0-21.385 17.322-38.741 38.679-38.741 21.389 0 38.774 17.356 38.774 38.741 0 21.362-17.384 38.747-38.774 38.747-21.357 0-38.679-17.386-38.679-38.747v0 0z" p-id="9074"></path><path d="M282.112 603.911c-77.235 0-123.988-107.507-123.988-201.007 0-82.452 48.799-134.297 113.339-134.297 0 14.778 0 32.534 0.096 49.67-42.316 0-73.451 28.996-73.451 84.687 0 66.714 28.837 152.58 83.943 152.58 2.822 0 5.525-0.248 8.223-0.495 6.771 15.801 14.314 30.703 22.664 44.609-9.902 2.703-20.21 4.253-30.827 4.253v0 0z" p-id="9075"></path><path d="M331.288 969.108c0-20.271 2.638-58.608 36.631-58.608h278.527c33.029 0 36.631 38.338 36.631 58.608h-351.789z" p-id="9076"></path><path d="M746.030 603.911c-10.677 0-20.982-1.551-30.887-4.253 8.35-13.906 15.957-28.808 22.632-44.609 2.703 0.248 5.492 0.495 8.254 0.495 55.166 0 83.915-85.866 83.915-152.58 0-55.69-31.075-84.687-73.359-84.687v-49.67c64.632 0 113.403 51.845 113.403 134.297 0.002 93.501-46.718 201.007-123.958 201.007v0 0z" p-id="9077"></path><path d="" p-id="9078"></path></svg>