<?xml version="1.0" standalone="no"?><!DOCTYPE svg PUBLIC "-//W3C//DTD SVG 1.1//EN" "http://www.w3.org/Graphics/SVG/1.1/DTD/svg11.dtd"><svg t="1528450083871" class="icon" style="" viewBox="0 0 1024 1024" version="1.1" xmlns="http://www.w3.org/2000/svg" p-id="4249" xmlns:xlink="http://www.w3.org/1999/xlink" width="200" height="200"><defs><style type="text/css"></style></defs><path d="M388.416 775.488c0 22.208 18.496 40.192 41.344 40.192h166.528c22.848 0 41.344-17.984 41.344-40.192s-18.496-40.192-41.344-40.192H429.76a40.768 40.768 0 0 0-41.344 40.192z m126.656-160.768c137.344 0 253.888-163.008 253.888-364.096 0-9.984 0.576-148.416 0-158.208H257.024c-0.512 9.792-0.96 148.224-0.96 158.208 0 201.088 121.664 364.096 259.008 364.096zM322.496 140.352l63.808 0.32S363.52 460.096 518.656 570.56c-202.624-14.08-196.16-430.208-196.16-430.208z m-72.32 302.208c-62.272 0-94.848-94.144-94.848-167.296 0-61.056 35.136-92.8 82.944-92.8L238.208 128c-72.896 0-128 56.832-128 147.264 0 102.464 52.736 220.352 139.968 220.352 11.968 0 23.616-1.728 34.816-4.672a387.392 387.392 0 0 1-25.6-48.896 111.168 111.168 0 0 1-9.216 0.512z m304.256 238.208a43.072 43.072 0 0 0-43.712-42.432 43.072 43.072 0 0 0-43.712 42.432c0 23.424 19.584 42.432 43.712 42.432a43.072 43.072 0 0 0 43.712-42.432zM785.792 128l-0.064 54.464c47.808 0 82.944 31.808 82.944 92.8 0 73.152-32.576 167.296-94.848 167.296-3.136 0-6.208-0.256-9.28-0.576a387.392 387.392 0 0 1-25.6 48.896c11.2 2.944 22.848 4.672 34.816 4.672 87.168 0 139.968-117.888 139.968-220.352 0.064-90.368-55.04-147.2-127.936-147.2z m-124.352 703.68H347.072c-38.336 0-41.344 42.112-41.344 64.32h397.12c-0.064-22.208-4.096-64.32-41.408-64.32z" p-id="4250" fill="#ffffff"></path></svg>