<?xml version="1.0" standalone="no"?><!DOCTYPE svg PUBLIC "-//W3C//DTD SVG 1.1//EN" "http://www.w3.org/Graphics/SVG/1.1/DTD/svg11.dtd"><svg t="1527764464108" class="icon" style="" viewBox="0 0 1024 1024" version="1.1" xmlns="http://www.w3.org/2000/svg" p-id="8317" xmlns:xlink="http://www.w3.org/1999/xlink" width="200" height="200"><defs><style type="text/css"></style></defs><path d="M914.091105 239.06956 914.091105 239.06956l-90.630976 0L823.460129 115.870643c0-18.559688-14.735607-33.295295-33.75871-33.295295L234.054102 82.575348c-18.535362 0-33.539774 14.735607-33.539774 33.295295l0 123.198917-90.849912 0c-18.313994 0-33.295295 14.97522-33.295295 33.295295l0 185.06049c0 53.051833 21.410721 101.808873 56.361415 137.006478l0.244478 0c30.689957 30.689957 71.583547 51.611721 117.251156 56.605894 50.442846 78.01175 140.947326 131.766611 234.425685 141.77685l0 83.95951L332.772329 876.774077c-18.313994 0-33.54099 8.897314-33.54099 27.458219 0 18.071948 15.22578 27.455786 33.54099 27.455786l358.456558 0c18.316426 0 33.75871-9.383839 33.75871-27.455786 0-18.560905-15.442283-27.458219-33.75871-27.458219l-151.661809 0 0-83.95951c93.238746-10.010239 184.007165-63.7651 234.425685-141.77685 44.474409-4.995389 84.685648-25.210476 115.133559-54.949278l1.898661-1.656615c34.953127-35.197605 56.605894-83.955861 56.605894-137.006478L947.630878 272.364855C947.630878 254.045997 932.652009 239.06956 914.091105 239.06956L914.091105 239.06956 914.091105 239.06956zM168.623872 547.325318 168.623872 547.325318c-23.308166-23.770364-37.339529-54.923736-37.339529-89.899973L131.284344 293.74152l69.229985 0 0 194.615829c0.733435 28.305988 4.994173 68.038 12.862488 95.391616C201.002069 577.585917 177.903108 557.093511 168.623872 547.325318l12.163109 0L168.623872 547.325318zM768.57045 486.215425 768.57045 486.215425l0 2.363292c-0.731003 37.339529-10.47487 74.457689-27.595662 107.290786l-0.488957 1.413353C698.154562 676.025609 602.254527 739.558394 511.866814 739.558394c-90.363387 0-186.265854-63.532785-228.132492-142.275537l-0.948723-1.413353c-17.58664-34.027514-26.64694-70.903629-27.11157-109.654078l0-0.242046 0-2.851033L255.674029 137.489354l512.896421 0L768.57045 486.215425l-12.163109 0L768.57045 486.215425zM892.716873 457.425345 892.716873 457.425345c0 34.976237-14.273409 66.129608-37.096267 89.899973l-1.435247 1.436463c-9.498172 9.03719-32.134934 29.288767-43.560959 34.987184 8.087251-27.353616 12.129052-67.086845 12.836945-95.392833l0-1.676076L823.461345 293.74152l69.255527 0L892.716873 457.425345l-12.163109 0L892.716873 457.425345zM551.814113 380.944931l-27.885144-86.341047c-1.246719-3.63677-4.085588-6.749309-7.996028-8.075088-6.575377-2.137058-13.678633 1.682158-15.897184 8.075088l-27.894875 86.341047-90.678412-0.09244c-3.91044 0-7.820879 1.774598-10.122139 5.239867-4.174379 5.421098-2.846168 13.233463 2.65399 17.317835l73.726686 53.295096-28.248821 86.238877 0 0c-1.421867 3.729209-0.709109 7.904805 1.690672 11.368858 4.085588 5.421098 11.986744 6.749309 17.499065 2.57493l73.360577-53.379021 72.832698 53.116298c3.20133 2.572498 7.639649 3.374046 11.724021 2.127328 6.575377-2.127328 10.304586-9.2318 7.993595-15.807177l-28.237874-86.238877 73.17813-52.942365c3.383777-2.310991 5.602328-6.128991 5.602328-10.476086l0 0c0-6.93054-5.602328-12.43313-12.523137-12.43313L551.814113 380.944931 551.814113 380.944931zM554.306335 441.779938 554.306335 441.779938c-4.448049 3.282823-6.0402 9.059084-4.448049 13.942572l19.006074 58.444956-49.558588-36.152409c-4.438319-3.375263-10.476086-3.284039-14.742905 0l0 0-49.477096 36.152409 19.009723-58.444956c1.862172-5.328658-0.355163-11.185195-4.883488-14.206512l-49.203426-35.616016 61.281393 0.173932c5.775044 0 10.842196-4.085588 12.079184-9.506686l18.652128-57.552184 18.837007 58.352516c1.772165 5.421098 6.565646 8.613914 11.896737 8.613914l0 0.091223 61.1999-0.173932L554.306335 441.779938 554.306335 441.779938 554.306335 441.779938z" p-id="8318"></path></svg>