<?xml version="1.0" standalone="no"?><!DOCTYPE svg PUBLIC "-//W3C//DTD SVG 1.1//EN" "http://www.w3.org/Graphics/SVG/1.1/DTD/svg11.dtd"><svg t="1526554319535" class="icon" style="" viewBox="0 0 1024 1024" version="1.1" xmlns="http://www.w3.org/2000/svg" p-id="12634" xmlns:xlink="http://www.w3.org/1999/xlink" width="200" height="200"><defs><style type="text/css"></style></defs><path d="M512 1024c-281.6 0-512-230.4-512-512s230.4-512 512-512 512 230.4 512 512-230.4 512-512 512z m0-51.2c256 0 460.8-204.8 460.8-460.8S768 51.2 512 51.2 51.2 256 51.2 512 256 972.8 512 972.8z" p-id="12635" fill="#2c2c2c"></path><path d="M332.8 499.2c-57.6 0-102.4-51.2-102.4-102.4s44.8-102.4 102.4-102.4 102.4 44.8 102.4 102.4S384 499.2 332.8 499.2z m0-160c-32 0-57.6 25.6-57.6 57.6s25.6 57.6 57.6 57.6 57.6-25.6 57.6-57.6-25.6-57.6-57.6-57.6zM755.2 672l6.4-6.4c6.4-12.8 6.4-25.6-6.4-38.4-12.8-6.4-25.6-6.4-38.4 6.4-38.4 57.6-102.4 83.2-192 83.2-96 0-160-25.6-192-83.2-12.8-12.8-25.6-12.8-38.4-6.4-12.8 6.4-12.8 25.6-6.4 38.4 44.8 70.4 128 108.8 236.8 108.8 32 0 57.6-6.4 89.6-12.8 0 6.4 6.4 12.8 6.4 12.8 25.6 25.6 64 44.8 89.6 44.8 19.2 0 38.4-6.4 51.2-19.2s19.2-32 19.2-51.2c0-25.6-12.8-51.2-25.6-76.8z m-32 89.6c-12.8 12.8-38.4 6.4-64-19.2 19.2-6.4 38.4-19.2 51.2-32 6.4 12.8 12.8 25.6 12.8 32 6.4 6.4 6.4 12.8 0 19.2zM761.6 512c-6.4 0-6.4 0-12.8-6.4l-128-83.2c-12.8-6.4-19.2-19.2-19.2-32s6.4-19.2 19.2-25.6l140.8-70.4c12.8-6.4 25.6 0 32 12.8s0 25.6-12.8 32l-115.2 57.6 108.8 70.4c12.8 6.4 12.8 25.6 6.4 38.4 0 0-6.4 6.4-19.2 6.4z" p-id="12636" fill="#2c2c2c"></path></svg>