<?xml version="1.0" standalone="no"?><!DOCTYPE svg PUBLIC "-//W3C//DTD SVG 1.1//EN" "http://www.w3.org/Graphics/SVG/1.1/DTD/svg11.dtd"><svg t="1528450191451" class="icon" style="" viewBox="0 0 1024 1024" version="1.1" xmlns="http://www.w3.org/2000/svg" p-id="9038" xmlns:xlink="http://www.w3.org/1999/xlink" width="200" height="200"><defs><style type="text/css"></style></defs><path d="M601.6 940.8h140.8c57.6 6.4 57.6-32 57.6-57.6v-172.8s-185.6 217.6-198.4 230.4m-172.8-12.8c-6.4 19.2 0 19.2 19.2 12.8 44.8-12.8 128-83.2 128-83.2l-76.8-70.4c0 6.4-57.6 102.4-70.4 140.8m556.8-518.4l-51.2-44.8c-12.8-6.4-25.6-12.8-32 0l-300.8 320L531.2 768l89.6 76.8 32-38.4c12.8-19.2 25.6-32 32-38.4l294.4-320c12.8-19.2 12.8-32 6.4-38.4m-224 25.6c57.6-64 44.8-51.2 44.8-51.2l-6.4-185.6c0-25.6 6.4-64-64-64h-512c-76.8 0-64 38.4-64 64v672c0 25.6-6.4 57.6 64 64H384l83.2-185.6 294.4-313.6zM268.8 217.6h422.4c19.2 0 32 12.8 32 32s-12.8 32-32 32H268.8c-12.8-6.4-25.6-19.2-25.6-32 0-19.2 12.8-32 25.6-32m0 140.8h422.4c19.2 0 32 12.8 32 32s-12.8 32-32 32H268.8c-12.8-6.4-25.6-19.2-25.6-38.4 0-12.8 12.8-25.6 25.6-25.6m0 198.4c-12.8 0-25.6-12.8-25.6-32s12.8-32 32-32h262.4c19.2 0 32 12.8 32 32s-12.8 32-32 32H268.8z m0 0" p-id="9039" fill="#ffffff"></path></svg>