<?xml version="1.0" standalone="no"?><!DOCTYPE svg PUBLIC "-//W3C//DTD SVG 1.1//EN" "http://www.w3.org/Graphics/SVG/1.1/DTD/svg11.dtd"><svg t="1527764988417" class="icon" style="" viewBox="0 0 1024 1024" version="1.1" xmlns="http://www.w3.org/2000/svg" p-id="11824" xmlns:xlink="http://www.w3.org/1999/xlink" width="200" height="200"><defs><style type="text/css"></style></defs><path d="M772.869 111.41c38.745 0 70.192 31.35 70.192 69.98v342.9l6.71-16.363L451.683 911.41l16.696-6.965H187.288c-38.764 0-70.157-31.226-70.157-69.75V88.083L93.708 111.41h679.16zM70.293 64.757v769.936c0 64.32 52.375 116.405 116.995 116.405h290.913l6.886-6.983 398.093-403.5 6.71-6.787V181.39c0-64.373-52.401-116.633-117.021-116.633H70.293zM806.625 674.14l-11.285 11.248 11.285 11.25 63.817 63.543 11.275 11.25 11.293-11.25 47.861-47.675 11.284-11.232-11.284-11.232-63.825-63.58-11.284-11.23-11.284 11.23-47.853 47.678z m47.852-25.196l63.845 63.562v-22.463l-47.879 47.676h22.568l-63.825-63.58v22.498l47.86-47.693h-22.57zM631.11 848.976l-3.43 3.385-0.942 4.724-15.958 79.466-4.681 23.38 23.45-4.69 79.784-15.886 4.743-0.934 3.429-3.403L893.01 760.182l11.284-11.231-11.284-11.232-63.825-63.58-11.286-11.248-11.274 11.249L631.11 848.976z m175.515-152.338l63.817 63.544V737.72L694.93 912.536l8.164-4.355-79.793 15.904 18.778 18.706 15.956-79.463-4.371 8.127 175.523-174.818h-22.561v0.001z m-330.178-32.813c17.649 0 31.974 14.246 31.974 31.826v8.445c0 17.58-14.201 31.843-31.974 31.843-17.668 0-32.001-14.264-32.001-31.843v-8.445c-0.001-17.58 14.21-31.826 32-31.826z m-148.564-254.74s2.504 21.987 27.188 21.987c24.685 0 26.139-21.987 26.139-21.987-1.631-71.231 31.498-105.067 99.336-101.691 45.155 5.078 68.534 30.459 70.112 76.23-3.13 20.39-20.276 46.751-50.77 78.92-40.384 40.693-60.59 77.137-60.59 109.315v33.007s3.102 19.676 25.425 19.676c22.321 0 25.425-19.676 25.425-19.676v-22.921c0-26.888 19.34-59.206 58.088-96.622 40.534-37.184 60.643-71.16 60.643-101.698-3.341-84.667-47.632-128.79-133.242-132.227-98.484-1.65-147.754 50.91-147.754 157.687z m0 0" fill="#2c2c2c" p-id="11825"></path></svg>