<?xml version="1.0" standalone="no"?><!DOCTYPE svg PUBLIC "-//W3C//DTD SVG 1.1//EN" "http://www.w3.org/Graphics/SVG/1.1/DTD/svg11.dtd"><svg t="1526554326246" class="icon" style="" viewBox="0 0 1024 1024" version="1.1" xmlns="http://www.w3.org/2000/svg" p-id="12783" xmlns:xlink="http://www.w3.org/1999/xlink" width="200" height="200"><defs><style type="text/css"></style></defs><path d="M441.6 768l89.6-51.2 96 51.2 44.8-51.2 44.8 51.2v-51.2l-44.8-51.2-44.8 51.2-89.6-51.2-89.6 51.2-89.6-51.2-44.8 51.2v51.2l44.8-51.2 83.2 51.2zM211.2 531.2c-6.4 6.4-6.4 19.2 0 25.6 6.4 6.4 19.2 6.4 25.6 0l172.8-121.6-172.8-121.6c-6.4-6.4-19.2-6.4-25.6 0-6.4 6.4-6.4 19.2 0 25.6l147.2 96-147.2 96z m601.6 0c6.4 6.4 6.4 19.2 0 25.6-6.4 6.4-19.2 6.4-25.6 0L614.4 435.2l172.8-121.6c6.4-6.4 19.2-6.4 25.6 0 6.4 6.4 6.4 19.2 0 25.6l-147.2 96 147.2 96zM512 1024c-281.6 0-512-230.4-512-512s230.4-512 512-512 512 230.4 512 512-230.4 512-512 512z m0-51.2c256 0 460.8-204.8 460.8-460.8S768 51.2 512 51.2 51.2 256 51.2 512 256 972.8 512 972.8z" p-id="12784" fill="#2c2c2c"></path></svg>