<?xml version="1.0" standalone="no"?><!DOCTYPE svg PUBLIC "-//W3C//DTD SVG 1.1//EN" "http://www.w3.org/Graphics/SVG/1.1/DTD/svg11.dtd"><svg t="1527764309497" class="icon" style="" viewBox="0 0 1024 1024" version="1.1" xmlns="http://www.w3.org/2000/svg" p-id="5870" xmlns:xlink="http://www.w3.org/1999/xlink" width="200" height="200"><defs><style type="text/css"></style></defs><path d="M952.978268 533.550914a26.109667 26.109667 0 0 1-36.948985 0L513.316536 130.408819 109.011665 535.145004a26.321393 26.321393 0 0 1-37.204678-37.243733L491.416839 77.844878a26.062016 26.062016 0 0 1 6.919184-6.749705 26.300024 26.300024 0 0 1 41.711605 12.10059L952.978268 496.565085a26.171318 26.171318 0 0 1 0 36.985829z m-98.732857-254.894699h-52.241439a0.188638 0.188638 0 0 1-0.186673-0.189129V147.629409h-130.845536a0.187901 0.187901 0 0 1-0.189129-0.188392V95.187051a0.188147 0.188147 0 0 1 0.189129-0.188638h183.273648a0.18741 0.18741 0 0 1 0.186673 0.188392v183.280281a0.188638 0.188638 0 0 1-0.186673 0.189129zM172.652934 514.92782h52.254702a0.188147 0.188147 0 0 1 0.188393 0.189129v392.890305h182.561097V646.141789a0.188638 0.188638 0 0 1 0.18913-0.186673h236.988822a0.183971 0.183971 0 0 1 0.184217 0.184217v261.867921h182.561343V540.887657a0.189129 0.189129 0 0 1 0.189129-0.18913h52.261089a0.190849 0.190849 0 0 1 0.18913 0.18913v419.552621a0.189129 0.189129 0 0 1-0.18913 0.18913H592.576445a0.187656 0.187656 0 0 1-0.189129-0.18913V697.513725h-132.098211v262.926553a0.187656 0.187656 0 0 1-0.189129 0.18913H172.652934a0.187901 0.187901 0 0 1-0.188147-0.18913V515.116949a0.187901 0.187901 0 0 1 0.188147-0.189129z" fill="#2c2c2c" p-id="5871"></path></svg>