<?xml version="1.0" standalone="no"?><!DOCTYPE svg PUBLIC "-//W3C//DTD SVG 1.1//EN" "http://www.w3.org/Graphics/SVG/1.1/DTD/svg11.dtd"><svg t="1526554305543" class="icon" style="" viewBox="0 0 1024 1024" version="1.1" xmlns="http://www.w3.org/2000/svg" p-id="12449" xmlns:xlink="http://www.w3.org/1999/xlink" width="200" height="200"><defs><style type="text/css"></style></defs><path d="M512 1024c-281.6 0-512-230.4-512-512s230.4-512 512-512 512 230.4 512 512-230.4 512-512 512z m0-51.2c256 0 460.8-204.8 460.8-460.8S768 51.2 512 51.2 51.2 256 51.2 512 256 972.8 512 972.8z" p-id="12450" fill="#2c2c2c"></path><path d="M704 364.8c-64 0-96 19.2-121.6 44.8-12.8 12.8-12.8 32-6.4 44.8 6.4 12.8 25.6 12.8 32 6.4 19.2-19.2 38.4-32 96-32 51.2 0 76.8 19.2 96 32 12.8 12.8 25.6 6.4 32-6.4 6.4-12.8 6.4-32-6.4-38.4-19.2-25.6-51.2-51.2-121.6-51.2zM320 364.8c-64 0-96 19.2-121.6 44.8-12.8 12.8-19.2 32-6.4 44.8 6.4 12.8 25.6 12.8 32 6.4 19.2-19.2 38.4-38.4 96-38.4 51.2 0 76.8 19.2 96 32 6.4 12.8 19.2 12.8 32 0 6.4-12.8 6.4-32-6.4-38.4-19.2-25.6-57.6-51.2-121.6-51.2zM390.4 691.2c-6.4 0-19.2 6.4-25.6 12.8-12.8 12.8-6.4 32 6.4 38.4 32 25.6 70.4 44.8 147.2 44.8 83.2 0 121.6-25.6 147.2-44.8 12.8-12.8 12.8-25.6 6.4-38.4-12.8-12.8-25.6-12.8-38.4-6.4-19.2 19.2-51.2 32-115.2 32s-89.6-19.2-115.2-32c0 0-6.4-6.4-12.8-6.4z" p-id="12451" fill="#2c2c2c"></path></svg>