<?xml version="1.0" standalone="no"?><!DOCTYPE svg PUBLIC "-//W3C//DTD SVG 1.1//EN" "http://www.w3.org/Graphics/SVG/1.1/DTD/svg11.dtd"><svg t="1527764528167" class="icon" style="" viewBox="0 0 1024 1024" version="1.1" xmlns="http://www.w3.org/2000/svg" p-id="9545" xmlns:xlink="http://www.w3.org/1999/xlink" width="200" height="200"><defs><style type="text/css"></style></defs><path d="M256 806.4h364.8c19.2 0 38.4 19.2 38.4 38.4s-19.2 38.4-38.4 38.4H256c-19.2 0-38.4-19.2-38.4-38.4 0-25.6 19.2-38.4 38.4-38.4z m0-147.2h364.8c19.2 0 38.4 19.2 38.4 38.4s-19.2 38.4-38.4 38.4H256c-19.2 0-38.4-19.2-38.4-38.4 0-25.6 19.2-38.4 38.4-38.4zM256 512h364.8c19.2 0 38.4 19.2 38.4 38.4s-19.2 32-38.4 32H256c-19.2 0-38.4-19.2-38.4-38.4S236.8 512 256 512z m0-147.2h147.2c19.2 0 38.4 19.2 38.4 38.4s-19.2 38.4-38.4 38.4H256c-19.2 0-38.4-19.2-38.4-38.4s19.2-38.4 38.4-38.4zM147.2 217.6v729.6h582.4V217.6H147.2z m147.2-70.4V0h659.2c38.4 0 70.4 32 70.4 70.4v806.4h-147.2v-70.4h70.4V70.4H364.8v70.4h364.8c38.4 0 70.4 32 70.4 70.4V1024H147.2c-38.4 0-70.4-32-70.4-70.4V147.2h217.6z" p-id="9546"></path></svg>